<?xml version="1.0" encoding="utf-8"?>
<svg xmlns="http://www.w3.org/2000/svg" viewBox="0 0 500 500">
  <defs>
    <clipPath id="clip0_1491_11761">
      <rect width="17.6334" height="24.9105" fill="white" transform="translate(8.46875 4.11914)"/>
    </clipPath>
  </defs>
  <g clip-path="url(#clip0_1491_11761)" transform="matrix(14.946695, 0, 0, 14.946695, -6.184923, -10.378005)" style="">
    <path d="M26.1021 5.47555V10.0263C26.1021 11.8778 25.1526 13.6072 23.5928 14.5974L13.1687 21.2303L12.4363 21.6982C12.3345 21.7593 12.2396 21.8339 12.1514 21.9085C11.541 22.4171 11.1816 23.1767 11.1816 23.9838V27.6732C11.1816 28.1751 10.9103 28.6092 10.5034 28.8398C10.3067 28.9618 10.0693 29.0297 9.82516 29.0297C9.07914 29.0297 8.46875 28.4193 8.46875 27.6732V23.9906C8.46875 22.1323 9.41824 20.4029 10.9849 19.4059L22.1346 12.3119C22.9145 11.8168 23.3893 10.9487 23.3893 10.0263V5.47555C23.3893 4.72953 23.9997 4.11914 24.7457 4.11914C24.9899 4.11914 25.2272 4.18696 25.4239 4.30226C25.5256 4.36329 25.6206 4.43112 25.702 4.51928C25.9529 4.76344 26.1021 5.10254 26.1021 5.47555Z" fill="#F5274E"/>
    <path d="M21.7424 11.2404C21.6203 11.4914 21.0302 11.9186 21.0302 11.9186H13.4343C12.9325 11.9186 12.4984 12.2103 12.2407 12.6375C11.8338 13.309 11.047 13.7227 10.1722 13.587C9.33797 13.4582 8.64619 12.78 8.50377 11.9458C8.27996 10.6572 9.25658 9.54492 10.5045 9.54492C11.2573 9.54492 11.9084 9.95185 12.261 10.5487C12.5052 10.9759 12.946 11.2404 13.4343 11.2404H21.7424Z" fill="#F5274E"/>
    <path d="M22.033 5.81466V6.49286H13.4334C12.9315 6.49286 12.4974 6.78449 12.2397 7.21176C11.8328 7.88319 11.0461 8.29689 10.1712 8.16125C9.33699 8.03239 8.64522 7.35418 8.50279 6.51999C8.27899 5.2314 9.2556 4.11914 10.5035 4.11914C11.2563 4.11914 11.9074 4.52606 12.2601 5.12289C12.5042 5.55016 12.945 5.81466 13.4334 5.81466H22.033Z" fill="#F5274E"/>
    <path d="M13.1688 21.2314L12.4363 21.6994C12.3346 21.7604 12.2396 21.835 12.1514 21.9097H9.8252V21.2314H13.1688Z" fill="#F5274E"/>
    <path d="M24.0675 23.6039C23.3147 23.6039 22.6636 23.197 22.3109 22.6002C22.0668 22.1729 21.6259 21.9084 21.1376 21.9084H13.5078C13.596 21.8338 13.6909 21.7592 13.7927 21.6982L14.5251 21.2302H21.1376C21.6395 21.2302 22.0736 20.9386 22.3313 20.5113C22.7382 19.8399 23.5249 19.4262 24.3998 19.5618C25.234 19.6907 25.9258 20.3689 26.0682 21.2031C26.292 22.4917 25.3154 23.6039 24.0675 23.6039Z" fill="#F5274E"/>
    <path d="M11.1816 26.6562H9.8252V27.3345H11.1816V26.6562Z" fill="#F5274E"/>
    <path d="M24.0676 29.0287C23.3148 29.0287 22.6637 28.6218 22.311 28.025C22.0669 27.5977 21.626 27.3332 21.1377 27.3332H12.5381V26.655H21.1377C21.6396 26.655 22.0737 26.3634 22.3314 25.9361C22.7383 25.2647 23.525 24.851 24.3999 24.9866C25.2341 25.1155 25.9259 25.7937 26.0683 26.6279C26.2921 27.9165 25.3155 29.0287 24.0676 29.0287Z" fill="#F5274E"/>
  </g>
</svg>